Coordinates
version=1
nRows=7
nColumns=63
inDegrees=yes

Units are S.I. units (second, meters, Newtons, ...)
If the header above contains a line with 'inDegrees', this indicates whether rotational values are in degrees (yes) or radians (no).

endheader
time	pelvis_tilt	pelvis_list	pelvis_rotation	pelvis_tx	pelvis_ty	pelvis_tz	hip_flexion_r	hip_adduction_r	hip_rotation_r	knee_angle_r	knee_angle_r_beta	ankle_angle_r	subtalar_angle_r	mtp_angle_r	hip_flexion_l	hip_adduction_l	hip_rotation_l	knee_angle_l	knee_angle_l_beta	ankle_angle_l	subtalar_angle_l	mtp_angle_l	L5_S1_Flex_Ext	L5_S1_Lat_Bending	L5_S1_axial_rotation	L4_L5_Flex_Ext	L4_L5_Lat_Bending	L4_L5_axial_rotation	L3_L4_Flex_Ext	L3_L4_Lat_Bending	L3_L4_axial_rotation	L2_L3_Flex_Ext	L2_L3_Lat_Bending	L2_L3_axial_rotation	L1_L2_Flex_Ext	L1_L2_Lat_Bending	L1_L2_axial_rotation	L1_T12_Flex_Ext	L1_T12_Lat_Bending	L1_T12_axial_rotation	Abs_r3	Abs_r2	Abs_r1	Abs_t1	Abs_t2	neck_flexion	neck_bending	neck_rotation	arm_flex_r	arm_add_r	arm_rot_r	elbow_flex_r	pro_sup_r	wrist_flex_r	wrist_dev_r	arm_flex_l	arm_add_l	arm_rot_l	elbow_flex_l	pro_sup_l	wrist_flex_l	wrist_dev_l
     11.58300000	    -50.61725337	     -5.76336324	      3.52503048	     -0.37067174	      1.11635724	      0.04691068	     97.73958750	     -9.04092242	     -9.85598161	     64.56968801	      1.12695365	      6.49211880	      5.63445598	      0.00000000	    103.86134068	     -6.80193083	      5.03521021	    106.45584309	      1.85800497	     14.78253356	     10.92264993	      0.00000000	     -0.09130710	      0.56845610	      0.17372726	     -0.16956642	      0.75604661	      0.18458522	     -0.15000844	      1.38214416	      0.18458522	     -0.10435488	      1.38214416	      0.15201135	     -0.08478777	      1.15919568	      0.14115340	     -0.05217288	      0.88053850	      0.13029545	     -0.65219749	      6.43048911	      0.96621892	      0.00000000	      0.00000000	      0.00000000	      0.00000000	      0.00000000	     72.81422427	    -15.51834907	     14.15392765	     34.49088697	     52.66546369	      0.00000000	      5.00000014	     69.00072492	     -7.02696147	     15.91977648	     37.25130698	     52.19880912	      0.00000000	      5.00000014
     11.59200000	    -50.59908578	     -5.55765005	      3.88685693	     -0.37044257	      1.11631835	      0.04670631	     96.73043025	     -9.22782411	     -9.83899776	     63.23223105	      1.10361063	      6.12028324	      5.71271738	      0.00000000	    104.67601833	     -6.50388369	      4.85218763	    107.49733146	      1.87618237	     15.14316805	     10.74543892	      0.00000000	     -0.09188189	      0.53010897	      0.10512023	     -0.17063385	      0.70504493	      0.11169025	     -0.15095275	      1.28890694	      0.11169025	     -0.10501181	      1.28890694	      0.09198020	     -0.08532152	      1.08099821	      0.08541019	     -0.05250131	      0.82113879	      0.07884018	     -0.65630313	      5.99669866	      0.58464720	      0.00000000	      0.00000000	      0.00000000	      0.00000000	      0.00000000	     72.69852017	    -15.55181089	     14.20594826	     34.49176642	     52.67421324	      0.00000000	      5.00000014	     69.07929476	     -7.03555501	     16.02608152	     37.21050601	     52.21236552	      0.00000000	      5.00000014
     11.60000000	    -50.56154639	     -5.60490930	      3.95353613	     -0.37016017	      1.11621420	      0.04661686	     95.62839765	     -9.15066604	    -10.09889082	     61.86021448	      1.07966442	      5.81488961	      6.08981699	      0.00000000	    105.56691072	     -6.44040006	      4.94127481	    108.62366416	      1.89584059	     15.78776660	     10.36695255	      0.00000000	     -0.09163562	      0.52813788	      0.09698588	     -0.17017652	      0.70242338	      0.10304750	     -0.15054817	      1.28411444	      0.10304750	     -0.10473035	      1.28411444	      0.08486265	     -0.08509284	      1.07697876	      0.07880103	     -0.05236060	      0.81808557	      0.07273941	     -0.65454410	      5.97440131	      0.53940639	      0.00000000	      0.00000000	      0.00000000	      0.00000000	      0.00000000	     72.67654031	    -15.67518131	     14.33648799	     34.42589093	     52.74368818	      0.00000000	      5.00000014	     69.18412013	     -7.03551821	     16.55489287	     37.00659843	     52.32714484	      0.00000000	      5.00000014
     11.60800000	    -50.53320233	     -5.38957564	      4.31114309	     -0.36986220	      1.11617809	      0.04630538	     94.64433191	     -9.34406072	    -10.03912403	     60.66420818	      1.05879017	      5.45819362	      6.17179215	      0.00000000	    106.38475539	     -6.13284987	      4.71826865	    109.61602952	      1.91316063	     16.14792014	     10.18928171	      0.00000000	     -0.09197355	      0.49157841	      0.02386284	     -0.17080408	      0.65379928	      0.02535427	     -0.15110334	      1.19522374	      0.02535427	     -0.10511657	      1.19522374	      0.02087998	     -0.08540664	      1.00242669	      0.01938856	     -0.05255369	      0.76145495	      0.01789713	     -0.65695786	      5.56083327	      0.13271795	      0.00000000	      0.00000000	      0.00000000	      0.00000000	      0.00000000	     72.53443548	    -15.67978182	     14.38541026	     34.43635941	     52.75131062	      0.00000000	      5.00000014	     69.21199158	     -7.08658139	     16.67377935	     36.95845774	     52.34326219	      0.00000000	      5.00000014
     11.61700000	    -50.50182721	     -5.23362081	      4.59116725	     -0.36960088	      1.11614646	      0.04594659	     93.64898058	     -9.47548565	    -10.02272847	     59.47560116	      1.03804506	      5.10566992	      6.33108449	      0.00000000	    107.23040904	     -5.87606259	      4.53365393	    110.59087536	      1.93017490	     16.58477241	      9.95654662	      0.00000000	     -0.09221955	      0.46523388	     -0.03281353	     -0.17126092	      0.61876106	     -0.03486438	     -0.15150749	      1.13116965	     -0.03486438	     -0.10539772	      1.13116965	     -0.02871184	     -0.08563507	      0.94870492	     -0.02666099	     -0.05269425	      0.72064728	     -0.02461015	     -0.65871500	      5.26281867	     -0.18249901	      0.00000000	      0.00000000	      0.00000000	      0.00000000	      0.00000000	     72.40485865	    -15.68013286	     14.41158742	     34.44169756	     52.75756812	      0.00000000	      5.00000014	     69.24376562	     -7.14694858	     16.85033752	     36.88348003	     52.37050887	      0.00000000	      5.00000014
     11.62500000	    -50.46509572	     -5.10260419	      4.82020317	     -0.36932395	      1.11610543	      0.04556774	     92.66403548	     -9.56318604	    -10.02365999	     58.36041604	      1.01858141	      4.76035821	      6.53627991	      0.00000000	    108.08696493	     -5.63667989	      4.37917618	    111.54383580	      1.94680719	     16.99445836	      9.71170873	      0.00000000	     -0.09270348	      0.44447663	     -0.08151649	     -0.17215963	      0.59115391	     -0.08661127	     -0.15230255	      1.08070047	     -0.08661127	     -0.10595081	      1.08070047	     -0.07132693	     -0.08608445	      0.90637674	     -0.06623214	     -0.05297077	      0.68849429	     -0.06113736	     -0.66217168	      5.02800849	     -0.45337024	      0.00000000	      0.00000000	      0.00000000	      0.00000000	      0.00000000	     72.27317485	    -15.67607785	     14.41990406	     34.45154480	     52.75971055	      0.00000000	      5.00000014	     69.25640011	     -7.21424453	     17.05353641	     36.81096153	     52.40056500	      0.00000000	      5.00000014
     11.63300000	    -50.41303493	     -5.22311575	      4.81454013	     -0.36905978	      1.11596815	      0.04517606	     91.61658694	     -9.44248340	    -10.27143364	     57.23683857	      0.99897129	      4.49951591	      7.24994051	      0.00000000	    109.03085307	     -5.51820851	      4.51101743	    112.54044245	      1.96420126	     17.41900210	      9.30728485	      0.00000000	     -0.09154251	      0.45980333	     -0.08117510	     -0.17000359	      0.61153842	     -0.08624855	     -0.15039518	      1.11796580	     -0.08624855	     -0.10462393	      1.11796580	     -0.07102822	     -0.08500637	      0.93763094	     -0.06595477	     -0.05230739	      0.71223535	     -0.06088133	     -0.65387897	      5.20138717	     -0.45147158	      0.00000000	      0.00000000	      0.00000000	      0.00000000	      0.00000000	     72.24711547	    -15.73339990	     14.37751367	     34.42804786	     52.79760628	      0.00000000	      5.00000014	     69.28415308	     -7.30197551	     17.71427004	     36.69716008	     52.53559338	      0.00000000	      5.00000014
